<svg xmlns="http://www.w3.org/2000/svg" viewBox="0 0 360 700" width="360" height="700"><rect x="4" y="4" width="352" height="692" rx="58" fill="#151515" /><rect x="14" y="14" width="332" height="672" rx="46" fill="#0E0E0E" /><rect x="22" y="18" width="316" height="664" rx="40" fill="#FFFFFF" /><rect x="156" y="26" width="48" height="6" rx="3" fill="#161616" /><rect x="22" y="18" width="316" height="24" rx="10" fill="#FFFFFF" /><text x="36" y="35" font-size="11" fill="#1C1C1C" font-weight="600" text-anchor="start" font-family="Inter, system-ui, sans-serif">09:41</text><circle cx="272" cy="30" r="3" fill="#1C1C1C"/><rect x="282" y="27" width="10" height="6" rx="2" fill="#1C1C1C" /><rect x="296" y="25" width="14" height="8" rx="2" fill="#4ADE80" /><rect x="310" y="27" width="4" height="6" rx="1" fill="#1C1C1C" /><rect x="22" y="66" width="316" height="56"  fill="#FFFFFF" /><text x="44" y="100" font-size="15" fill="#1C1C1C" font-weight="500" text-anchor="start" font-family="Inter, system-ui, sans-serif">‹</text><text x="64" y="102" font-size="17" fill="#1C1C1C" font-weight="700" text-anchor="start" font-family="Inter, system-ui, sans-serif">G-Food</text><rect x="32" y="140" width="296" height="38" rx="19" fill="#FFFFFF" /><rect x="48" y="154" width="16" height="8" rx="2" fill="#E5E7EB" /><circle cx="64" cy="159" r="4" fill="none"/><rect x="78" y="152" width="130" height="12"  fill="#E5E7EB" /><circle cx="60" cy="160" r="7" fill="none" stroke="#7A7A7A" stroke-width="2"/><line x1="65" y1="165" x2="72" y2="172" stroke="#7A7A7A" stroke-width="2" stroke-linecap="round"/><rect x="32" y="192" width="60" height="26" rx="13" fill="#2E7D32" /><text x="62" y="209" font-size="11" fill="#FFFFFF" font-weight="600" text-anchor="middle" font-family="Inter, system-ui, sans-serif">Semua</text><rect x="100" y="192" width="68" height="26" rx="13" fill="#FFFFFF" /><text x="134" y="209" font-size="11" fill="#1C1C1C" font-weight="500" text-anchor="middle" font-family="Inter, system-ui, sans-serif">Makanan</text><rect x="176" y="192" width="70" height="26" rx="13" fill="#FFFFFF" /><text x="211" y="209" font-size="11" fill="#1C1C1C" font-weight="500" text-anchor="middle" font-family="Inter, system-ui, sans-serif">Minuman</text><rect x="254" y="192" width="70" height="26" rx="13" fill="#FFFFFF" /><text x="289" y="209" font-size="11" fill="#1C1C1C" font-weight="500" text-anchor="middle" font-family="Inter, system-ui, sans-serif">Desert</text><g><rect x="32" y="232" width="296" height="120" rx="20" fill="#FFFFFF" /><rect x="48" y="248" width="96" height="88" rx="14" fill="#A5D6A7"/><circle cx="74" cy="284" r="9" fill="#FFFFFF"/><circle cx="74" cy="292" r="7" fill="#A5D6A7"/><rect x="92" y="284" width="26" height="6" rx="3" fill="#FFFFFF" /><rect x="92" y="292" width="18" height="6" rx="3" fill="#FFFFFF" /><text x="160" y="274" font-size="13" fill="#1C1C1C" font-weight="700" text-anchor="start" font-family="Inter, system-ui, sans-serif">Nasi Goreng Spesial</text><text x="160" y="290" font-size="10" fill="#7A7A7A" font-weight="400" text-anchor="start" font-family="Inter, system-ui, sans-serif">Makanan · 4.9</text><text x="160" y="310" font-size="12" fill="#FF6F00" font-weight="800" text-anchor="start" font-family="Inter, system-ui, sans-serif">Rp 25.000</text><circle cx="316" cy="320" r="13" fill="#2E7D32"/><text x="316" y="325" font-size="15" fill="#FFFFFF" font-weight="700" text-anchor="middle" font-family="Inter, system-ui, sans-serif">+</text></g><g><rect x="32" y="364" width="296" height="120" rx="20" fill="#FFFFFF" /><rect x="48" y="380" width="96" height="88" rx="14" fill="#FFCC80"/><circle cx="74" cy="416" r="9" fill="#FFFFFF"/><circle cx="74" cy="424" r="7" fill="#FFCC80"/><rect x="92" y="416" width="26" height="6" rx="3" fill="#FFFFFF" /><rect x="92" y="424" width="18" height="6" rx="3" fill="#FFFFFF" /><text x="160" y="406" font-size="13" fill="#1C1C1C" font-weight="700" text-anchor="start" font-family="Inter, system-ui, sans-serif">Es Teh Manis</text><text x="160" y="422" font-size="10" fill="#7A7A7A" font-weight="400" text-anchor="start" font-family="Inter, system-ui, sans-serif">Minuman · 4.8</text><text x="160" y="442" font-size="12" fill="#FF6F00" font-weight="800" text-anchor="start" font-family="Inter, system-ui, sans-serif">Rp 8.000</text><circle cx="316" cy="452" r="13" fill="#2E7D32"/><text x="316" y="457" font-size="15" fill="#FFFFFF" font-weight="700" text-anchor="middle" font-family="Inter, system-ui, sans-serif">+</text></g><rect x="22" y="622" width="316" height="60"  fill="#FFFFFF" /><rect x="42" y="634" width="48" height="36" rx="12" fill="#FFF3E0" /><rect x="50" y="642" width="32" height="20" rx="8" fill="#FF6F00" /><rect x="56" y="646" width="20" height="10" rx="3" fill="#FFFFFF" /><rect x="98" y="646" width="70" height="11"  fill="#1C1C1C" /><rect x="98" y="660" width="50" height="8"  fill="#7A7A7A" /><rect x="210" y="642" width="108" height="40" rx="12" fill="#FF6F00" /><text x="264" y="667" font-size="14" fill="#FFFFFF" font-weight="800" text-anchor="middle" font-family="Inter, system-ui, sans-serif">Pesan • Rp 33.000</text></svg>